<?xml version="1.0" standalone="no"?>
<!DOCTYPE svg PUBLIC "-//W3C//DTD SVG 20010904//EN"
 "http://www.w3.org/TR/2001/REC-SVG-20010904/DTD/svg10.dtd">
<svg version="1.0" xmlns="http://www.w3.org/2000/svg"
 width="700.000000pt" height="700.000000pt" viewBox="0 0 700.000000 700.000000"
 preserveAspectRatio="xMidYMid meet">
<metadata>
Created by potrace 1.14, written by Peter Selinger 2001-2017
</metadata>
<g transform="translate(0.000000,700.000000) scale(0.100000,-0.100000)"
fill="#000000" stroke="none">
<path d="M3448 6925 c-1 -1 -97 -6 -213 -10 -115 -3 -228 -8 -250 -10 -22 -2
-71 -7 -110 -10 -113 -9 -145 -13 -240 -24 -49 -7 -110 -14 -135 -17 -25 -3
-52 -7 -60 -9 -8 -2 -37 -7 -65 -11 -27 -3 -59 -8 -70 -10 -11 -2 -33 -7 -50
-10 -24 -4 -140 -28 -190 -38 -5 -2 -37 -8 -70 -15 -253 -54 -748 -217 -895
-296 -14 -7 -63 -32 -110 -55 -297 -146 -570 -366 -707 -568 -87 -128 -128
-227 -159 -382 -4 -19 -8 -894 -8 -1945 -1 -1999 -1 -1985 40 -2100 8 -22 16
-45 17 -50 1 -6 20 -45 42 -87 192 -380 707 -719 1415 -934 104 -32 324 -90
375 -100 11 -2 31 -6 45 -9 14 -3 36 -8 50 -11 81 -17 225 -43 276 -49 27 -4
56 -8 64 -10 24 -7 177 -27 305 -40 33 -3 76 -8 95 -10 19 -2 73 -6 120 -9 47
-3 126 -8 175 -12 187 -12 728 -6 895 11 19 2 74 6 122 10 49 3 97 8 109 10
12 2 47 7 78 10 54 6 77 8 166 21 42 5 130 20 180 29 17 3 48 8 70 11 22 3 56
10 75 14 19 5 49 11 66 14 148 26 525 132 704 198 224 83 487 208 608 289 24
16 45 29 48 29 3 0 49 33 102 72 292 219 461 457 507 715 19 111 20 3859 0
3958 -41 207 -136 369 -322 552 -344 336 -944 605 -1678 752 -82 16 -170 33
-195 36 -25 3 -52 8 -60 10 -8 3 -35 7 -60 10 -25 3 -54 7 -65 9 -18 3 -50 8
-165 21 -80 10 -119 14 -205 21 -49 3 -106 8 -125 10 -19 2 -143 6 -275 9
-132 4 -245 8 -252 10 -6 2 -13 2 -15 0z"/>
</g>
</svg>
