<?xml version="1.0" encoding="UTF-8" standalone="no"?>
<!-- Generator: Adobe Illustrator 18.1.1, SVG Export Plug-In . SVG Version: 6.00 Build 0)  -->

<svg
   version="1.1"
   id="Capa_1"
   x="0px"
   y="0px"
   viewBox="0 0 1024 1024"
   xml:space="preserve"
   sodipodi:docname="logo.svg"
   width="1024"
   height="1024"
   inkscape:version="1.1.2 (08b2f3d93c, 2022-04-05)"
   xmlns:inkscape="http://www.inkscape.org/namespaces/inkscape"
   xmlns:sodipodi="http://sodipodi.sourceforge.net/DTD/sodipodi-0.dtd"
   xmlns="http://www.w3.org/2000/svg"
   xmlns:svg="http://www.w3.org/2000/svg"><defs
   id="defs3382" /><sodipodi:namedview
   id="namedview3380"
   pagecolor="#ffffff"
   bordercolor="#666666"
   borderopacity="1.0"
   inkscape:pageshadow="2"
   inkscape:pageopacity="0.0"
   inkscape:pagecheckerboard="0"
   showgrid="false"
   inkscape:zoom="0.46618677"
   inkscape:cx="84.729989"
   inkscape:cy="243.46465"
   inkscape:window-width="2560"
   inkscape:window-height="1378"
   inkscape:window-x="1920"
   inkscape:window-y="0"
   inkscape:window-maximized="1"
   inkscape:current-layer="Capa_1" />
















<path
   id="path1109-1-9"
   style="fill:#000000;fill-opacity:1;stroke:#000000;stroke-width:27.6566;stroke-linecap:round;stroke-linejoin:round;stroke-miterlimit:4;stroke-dasharray:none;stroke-opacity:1;paint-order:stroke markers fill"
   d="m 511.59361,25.277247 c -265.587,0 -480.700399,96.694103 -480.700399,216.076293 0,119.3822 215.113399,216.0763 480.700399,216.0763 265.587,0 480.7004,-96.6941 480.7004,-216.0763 0,-119.38219 -215.1134,-216.076293 -480.7004,-216.076293 M 30.893211,349.39174 v 162.0572 c 0,119.3821 215.113399,216.0763 480.700399,216.0763 265.587,0 480.7004,-96.6942 480.7004,-216.0763 v -162.0572 c 0,119.3821 -215.1134,216.0762 -480.7004,216.0762 -265.587,0 -480.700399,-96.6941 -480.700399,-216.0762 m 0,270.0953 v 162.0572 c 0,119.3823 215.113399,216.07636 480.700399,216.07636 265.587,0 480.7004,-96.69406 480.7004,-216.07636 v -162.0572 c 0,119.3822 -215.1134,216.0762 -480.7004,216.0762 -265.587,0 -480.700399,-96.694 -480.700399,-216.0762 z m 0,-379.3292 v 162.0572 c 0,119.3822 215.113399,216.0764 480.700499,216.0764 265.5869,0 480.7003,-96.6942 480.7003,-216.0764 v -162.0572 c 0,119.3821 -215.1134,216.0762 -480.7003,216.0762 -265.5871,0 -480.700499,-96.6941 -480.700499,-216.0762 m 0,270.3102 v 162.0573 c 0,119.3822 215.113399,216.0764 480.700499,216.0764 265.5869,0 480.7003,-96.6942 480.7003,-216.0765 v -162.0572 c 0,119.3823 -215.1134,216.0764 -480.7003,216.0764 -265.5871,0 -480.700499,-96.6941 -480.700499,-216.0764 z" /><path
   d="m 511.59361,25.27724 c -265.587,0 -480.70042,96.69411 -480.70042,216.0763 0,119.3821 215.11342,216.0763 480.70042,216.0763 265.587,0 480.7004,-96.6942 480.7004,-216.0763 0,-119.38219 -215.1134,-216.0763 -480.7004,-216.0763 M 30.89319,349.39164 v 162.0572 c 0,119.3822 215.11342,216.0764 480.70042,216.0764 265.587,0 480.7004,-96.6942 480.7004,-216.0764 v -162.0572 c 0,119.3822 -215.1134,216.0763 -480.7004,216.0763 -265.587,0 -480.70042,-96.6941 -480.70042,-216.0763 m 0,270.0954 v 162.0572 c 0,119.38227 215.11342,216.07637 480.70042,216.07637 265.587,0 480.7004,-96.6941 480.7004,-216.07637 v -162.0572 c 0,119.3821 -215.1134,216.0762 -480.7004,216.0762 -265.587,0 -480.70042,-96.6941 -480.70042,-216.0762 z"
   id="path1109-60"
   style="fill:#ae2073;fill-opacity:1;stroke:none;stroke-width:27.6566;stroke-linecap:round;stroke-linejoin:round;stroke-miterlimit:4;stroke-dasharray:none;stroke-opacity:1;paint-order:stroke markers fill" /><path
   id="path3733-5-0-6"
   style="fill:#7488e5;fill-opacity:1;stroke:#000000;stroke-width:13.3734;stroke-linecap:round;stroke-linejoin:round;stroke-miterlimit:4;stroke-dasharray:none;stroke-opacity:1;paint-order:normal"
   d="m 23.72599,240.17742 v 162.0454 c 0,119.37352 218.3208,216.06062 487.86772,216.06062 269.5468,0 487.8675,-96.6871 487.8675,-216.06062 v -162.0454 c 0,119.3735 -218.3207,216.0605 -487.8675,216.0605 -269.54692,0 -487.86772,-96.687 -487.86772,-216.0605 m 0,270.29062 v 162.0455 c 0,119.3734 218.3208,216.0605 487.86772,216.0605 269.5468,0 487.8675,-96.6871 487.8675,-216.0606 v -162.0454 c 0,119.3735 -218.3207,216.0606 -487.8675,216.0606 -269.54692,0 -487.86772,-96.6871 -487.86772,-216.0606 z" /><path
   d="m 436.54681,456.82435 47.4879,91.1066 c 21.1059,-36.9351 53.1163,-67.1867 91.4584,-87.2372 l -27.0857,-115.73 136.8358,-136.8358 c 20.4022,-20.754 20.4022,-54.875 0,-74.64399 -20.4023,-19.7691 -54.1716,-20.6133 -74.5738,0 l -136.8357,136.90609 -323.6218,-74.5738 -49.5986,49.5986 261.3598,136.484 -136.8358,137.1875 -87.2372,-12.3117 -37.2868,37.2869 111.8605,61.9102 62.262,112.2123 36.9351,-37.2868 -11.9599,-87.9407 136.8358,-136.1322 m 244.4752,48.1915 c 87.9407,0 158.2932,70.3526 158.2932,158.2933 0,30.9551 -8.794,60.1515 -24.2716,84.4231 l 108.3429,109.0465 -48.8949,48.895 -109.75,-107.9913 c -24.2717,15.1259 -53.1163,23.92 -83.7196,23.92 -87.9408,0 -158.2933,-70.3526 -158.2933,-158.2933 0,-87.9407 70.3525,-158.2933 158.2933,-158.2933 m 0,70.3526 c -48.5433,0 -87.9408,39.3974 -87.9408,87.9407 0,48.5432 39.3975,87.9407 87.9408,87.9407 48.5432,0 87.9407,-39.3975 87.9407,-87.9407 0,-48.5433 -39.3975,-87.9407 -87.9407,-87.9407"
   id="path1558"
   style="fill:#ffffff;fill-opacity:1;stroke:#030303;stroke-width:15;stroke-linecap:round;stroke-linejoin:round;stroke-miterlimit:4;stroke-dasharray:none;stroke-opacity:1;paint-order:fill markers stroke" /></svg>
